# xmcd
#
# Track frame offsets: 
#        150
#        12100
#        25370
#        38112
#        51055
#        65038
#        79543
#        92816
#        105786
#        119128
#        130631
#        143033
#        157722
#        171993
#        184280
#        198805
#        211489
#        226530
#        238439
#        251008
#        264586
#        278825
#        292408
#
# Disc length: 4092 seconds
#
# Revision: 0
# Processed by: cddbd v1.5.2PL0 Copyright (c) Steve Scherf et al.
# Submitted via: ExactAudioCopy v0.99pb5
#
DISCID=470ffa17
DTITLE=Hunter, Alberta - Complete Recorded Works Vol 3, 1924-27
DYEAR=1900
DGENRE=Blues
TTITLE0=Everybody Loves My Baby
TTITLE1=Texas Moaner Blues
TTITLE2=Nobody Knows The Way I Feel Dis Mornin'
TTITLE3=Early Every Morn
TTITLE4=Cake Walking Babies
TTITLE5=Your Jelly Roll Is Good
TTITLE6=Take That Thing Away
TTITLE7=Everybody Does It Now
TTITLE8=A Master Man With A Master Mind
TTITLE9=Don't Want It All
TTITLE10=I'm Hard To Satisfy
TTITLE11=Empty Cellar Blues
TTITLE12=Double Crossin' Papa
TTITLE13=You For Me, Me For You
TTITLE14=I'm Tired Blues
TTITLE15=Wasn't It Nice?
TTITLE16=Everybody Mess Around
TTITLE17=Don't Forget To Mess Around
TTITLE18=Heebie Jeebies
TTITLE19=I'll Forgive You 'Cause I Love You
TTITLE20=I'm Gonna Lose Myself 'Way Down In Louisville
TTITLE21=My Old Daddy's Got A Brand New Way To Love
TTITLE22=I'm Down Right Now But I Won't Be Down Always
EXTD=
EXTT0=
EXTT1=
EXTT2=
EXTT3=
EXTT4=
EXTT5=
EXTT6=
EXTT7=
EXTT8=
EXTT9=
EXTT10=
EXTT11=
EXTT12=
EXTT13=
EXTT14=
EXTT15=
EXTT16=
EXTT17=
EXTT18=
EXTT19=
EXTT20=
EXTT21=
EXTT22=
PLAYORDER=
